<?xml version="1.0" standalone="no"?>
<!DOCTYPE svg PUBLIC "-//W3C//DTD SVG 20010904//EN"
 "http://www.w3.org/TR/2001/REC-SVG-20010904/DTD/svg10.dtd">
<svg version="1.0" xmlns="http://www.w3.org/2000/svg"
 width="512.000000pt" height="512.000000pt" viewBox="0 0 512.000000 512.000000"
 preserveAspectRatio="xMidYMid meet">
<metadata>
Created by potrace 1.16, written by Peter Selinger 2001-2019
</metadata>
<g transform="translate(0.000000,512.000000) scale(0.100000,-0.100000)"
fill="#000000" stroke="none">
<path d="M2315 5110 c-485 -50 -958 -246 -1350 -561 -301 -242 -543 -544 -710
-884 -160 -326 -238 -643 -252 -1025 -25 -709 231 -1352 747 -1871 222 -224
428 -373 701 -508 240 -120 483 -198 734 -236 218 -34 563 -29 788 10 222 39
410 207 480 430 34 109 31 251 -8 375 -27 84 -30 109 -30 215 1 105 4 130 29
200 71 206 232 365 431 428 110 34 270 31 395 -8 84 -26 109 -30 215 -29 106
0 129 4 195 28 138 52 261 151 327 264 76 128 106 305 107 612 0 238 -15 376
-47 434 -12 22 -42 54 -65 71 -38 26 -53 30 -107 30 -54 0 -69 -4 -107 -30
-23 -17 -54 -50 -67 -74 l-24 -44 13 -202 c10 -160 11 -230 1 -339 -16 -192
-26 -230 -70 -279 -69 -77 -144 -93 -261 -57 -83 26 -237 50 -320 50 -88 0
-238 -25 -327 -55 -154 -52 -276 -127 -400 -248 -291 -282 -392 -684 -271
-1080 42 -139 -13 -257 -137 -292 -115 -32 -409 -44 -593 -24 -691 75 -1332
510 -1674 1134 -234 430 -313 924 -222 1410 121 655 569 1238 1185 1544 383
191 794 256 1236 196 88 -12 108 -12 150 0 110 33 171 158 128 263 -35 82 -89
114 -236 137 -124 19 -458 27 -584 15z"/>
<path d="M4570 5106 c-30 -7 -111 -40 -180 -74 -69 -33 -197 -85 -285 -116
-333 -117 -439 -167 -565 -269 -136 -111 -253 -287 -297 -447 -24 -90 -24
-310 0 -400 41 -156 153 -328 280 -430 73 -59 217 -133 302 -156 141 -38 347
-28 490 23 179 64 376 229 504 422 206 311 340 802 287 1051 -57 269 -304 452
-536 396z m137 -450 c27 -53 -5 -272 -67 -458 -41 -122 -138 -307 -203 -388
-63 -77 -171 -162 -247 -193 -45 -18 -74 -22 -160 -22 -92 1 -112 4 -160 26
-184 87 -283 279 -240 467 19 81 53 136 129 212 91 90 167 130 411 215 213 74
290 105 398 159 97 49 105 48 139 -18z"/>
<path d="M2458 4306 c-70 -19 -120 -57 -151 -114 -37 -67 -43 -125 -23 -195
62 -214 354 -240 459 -42 28 53 30 164 4 216 -54 110 -176 167 -289 135z"/>
<path d="M1558 3916 c-97 -27 -165 -101 -182 -199 -18 -101 39 -212 133 -259
199 -101 420 92 346 301 -43 122 -174 191 -297 157z"/>
<path d="M2788 3606 c-20 -7 -54 -27 -75 -44 -21 -17 -225 -219 -454 -449
-392 -393 -418 -422 -452 -493 -48 -99 -67 -177 -67 -276 0 -267 163 -495 414
-579 193 -65 402 -31 562 91 58 44 840 841 866 883 47 74 28 181 -42 245 -68
61 -157 70 -232 23 -19 -12 -212 -203 -429 -425 -216 -222 -408 -412 -425
-423 -42 -26 -121 -35 -168 -19 -119 39 -181 183 -126 294 13 27 160 179 434
448 432 426 456 454 456 534 -1 82 -69 172 -147 193 -49 14 -69 13 -115 -3z"/>
<path d="M1033 3130 c-171 -40 -246 -252 -139 -393 117 -154 361 -117 431 67
38 99 -1 225 -88 285 -67 46 -131 59 -204 41z"/>
<path d="M1157 2186 c-81 -30 -134 -83 -163 -163 -58 -163 85 -338 261 -320
122 13 209 99 222 221 14 141 -85 260 -228 272 -33 3 -69 -1 -92 -10z"/>
</g>
</svg>
